name C:\Users\u0101727\Documents\MyRepositories\upper-imu-dc\Results\main_tracking\Case_45\FLX01_linearAccelerations_bodyFrame.mot
datacolumns 4
datarows 129
range 2.00600000 2.77400000
endheader 
time	radius_imu_x	radius_imu_y	radius_imu_z	
          2.00600000	         -6.09615057	         -2.87654761	          7.24841047	
          2.01200000	         -6.02317081	         -2.97707162	          7.16444628	
          2.01800000	         -5.94599206	         -3.07768878	          7.08149624	
          2.02400000	         -5.86525865	         -3.17823823	          7.00021218	
          2.03000000	         -5.78162583	         -3.27855738	          6.92119476	
          2.03600000	         -5.69574900	         -3.37848761	          6.84498898	
          2.04200000	         -5.60825129	         -3.47785441	          6.77210196	
          2.04800000	         -5.51973003	         -3.57648121	          6.70299429	
          2.05400000	         -5.43074970	         -3.67418187	          6.63809087	
          2.06000000	         -5.34184425	         -3.77075881	          6.57777931	
          2.06600000	         -5.25352927	         -3.86601734	          6.52240410	
          2.07200000	         -5.16630577	         -3.95975156	          6.47226351	
          2.07800000	         -5.08066941	         -4.05177871	          6.42759203	
          2.08400000	         -4.99711485	         -4.14192290	          6.38855371	
          2.09000000	         -4.91614522	         -4.23002704	          6.35522662	
          2.09600000	         -4.83822156	         -4.31598398	          6.32757957	
          2.10200000	         -4.76381072	         -4.39972668	          6.30546147	
          2.10800000	         -4.69331607	         -4.48123142	          6.28860044	
          2.11400000	         -4.62708248	         -4.56054193	          6.27659294	
          2.12000000	         -4.56540415	         -4.63774224	          6.26892313	
          2.12600000	         -4.50846819	         -4.71297813	          6.26496780	
          2.13200000	         -4.45643771	         -4.78641215	          6.26402687	
          2.13800000	         -4.40938404	         -4.85823709	          6.26534852	
          2.14400000	         -4.36733374	         -4.92864280	          6.26816435	
          2.15000000	         -4.33025465	         -4.99780477	          6.27171968	
          2.15600000	         -4.29806062	         -5.06588687	          6.27529620	
          2.16200000	         -4.27059116	         -5.13300645	          6.27824137	
          2.16800000	         -4.24761805	         -5.19925995	          6.27997467	
          2.17400000	         -4.22883026	         -5.26470942	          6.28000005	
          2.18000000	         -4.21382614	         -5.32939019	          6.27790627	
          2.18600000	         -4.20213387	         -5.39331842	          6.27336685	
          2.19200000	         -4.19318385	         -5.45649180	          6.26613320	
          2.19800000	         -4.18636042	         -5.51889775	          6.25603139	
          2.20400000	         -4.18101165	         -5.58051419	          6.24295489	
          2.21000000	         -4.17647872	         -5.64130762	          6.22686192	
          2.21600000	         -4.17214572	         -5.70123426	          6.20776942	
          2.22200000	         -4.16744676	         -5.76023019	          6.18575074	
          2.22800000	         -4.16191726	         -5.81821906	          6.16091947	
          2.23400000	         -4.15519771	         -5.87510948	          6.13341472	
          2.24000000	         -4.14704462	         -5.93080403	          6.10338011	
          2.24600000	         -4.13732923	         -5.98520146	          6.07093988	
          2.25200000	         -4.12602093	         -6.03821777	          6.03617876	
          2.25800000	         -4.11316344	         -6.08978166	          5.99912694	
          2.26400000	         -4.09884158	         -6.13984810	          5.95975357	
          2.27000000	         -4.08315800	         -6.18840873	          5.91796778	
          2.27600000	         -4.06619294	         -6.23547293	          5.87363456	
          2.28200000	         -4.04800747	         -6.28111103	          5.82658623	
          2.28800000	         -4.02860808	         -6.32541031	          5.77665646	
          2.29400000	         -4.00795361	         -6.36849215	          5.72370545	
          2.30000000	         -3.98595460	         -6.41050779	          5.66764646	
          2.30600000	         -3.96247209	         -6.45161512	          5.60847451	
          2.31200000	         -3.93734500	         -6.49199762	          5.54628091	
          2.31800000	         -3.91039126	         -6.53182979	          5.48127081	
          2.32400000	         -3.88143867	         -6.57128245	          5.41376587	
          2.33000000	         -3.85033734	         -6.61050545	          5.34420339	
          2.33600000	         -3.81699751	         -6.64963086	          5.27312347	
          2.34200000	         -3.78138324	         -6.68874964	          5.20115263	
          2.34800000	         -3.74354748	         -6.72792949	          5.12897407	
          2.35400000	         -3.70362110	         -6.76720626	          5.05729919	
          2.36000000	         -3.66180847	         -6.80658668	          4.98684034	
          2.36600000	         -3.61838975	         -6.84606419	          4.91828633	
          2.37200000	         -3.57367646	         -6.88559971	          4.85228641	
          2.37800000	         -3.52801155	         -6.92514823	          4.78943911	
          2.38400000	         -3.48172863	         -6.96465162	          4.73028752	
          2.39000000	         -3.43513502	         -7.00404425	          4.67531448	
          2.39600000	         -3.38849096	         -7.04326221	          4.62494027	
          2.40200000	         -3.34200196	         -7.08223427	          4.57951430	
          2.40800000	         -3.29581499	         -7.12089540	          4.53931477	
          2.41400000	         -3.25002651	         -7.15918293	          4.50454174	
          2.42000000	         -3.20469668	         -7.19703870	          4.47531049	
          2.42600000	         -3.15984892	         -7.23441548	          4.45164832	
          2.43200000	         -3.11550832	         -7.27127103	          4.43348261	
          2.43800000	         -3.07169133	         -7.30757702	          4.42064771	
          2.44400000	         -3.02843048	         -7.34331608	          4.41288441	
          2.45000000	         -2.98578416	         -7.37848203	          4.40984389	
          2.45600000	         -2.94382936	         -7.41308162	          4.41109680	
          2.46200000	         -2.90268933	         -7.44712904	          4.41613410	
          2.46800000	         -2.86251079	         -7.48064866	          4.42438542	
          2.47400000	         -2.82347552	         -7.51367117	          4.43523002	
          2.48000000	         -2.78579096	         -7.54623016	          4.44801184	
          2.48600000	         -2.74969219	         -7.57836370	          4.46205930	
          2.49200000	         -2.71542164	         -7.61010488	          4.47669920	
          2.49800000	         -2.68323088	         -7.64148861	          4.49128097	
          2.50400000	         -2.65335810	         -7.67254770	          4.50519446	
          2.51000000	         -2.62600776	         -7.70331407	          4.51788807	
          2.51600000	         -2.60134336	         -7.73381916	          4.52888376	
          2.52200000	         -2.57944031	         -7.76408860	          4.53778942	
          2.52800000	         -2.56029770	         -7.79414381	          4.54430218	
          2.53400000	         -2.54381569	         -7.82399795	          4.54820860	
          2.54000000	         -2.52979657	         -7.85365449	          4.54938123	
          2.54600000	         -2.51794986	         -7.88311194	          4.54776711	
          2.55200000	         -2.50789993	         -7.91235943	          4.54338377	
          2.55800000	         -2.49920889	         -7.94138540	          4.53630092	
          2.56400000	         -2.49140160	         -7.97017722	          4.52663099	
          2.57000000	         -2.48399597	         -7.99872285	          4.51451730	
          2.57600000	         -2.47651986	         -8.02701049	          4.50012341	
          2.58200000	         -2.46855902	         -8.05502452	          4.48362671	
          2.58800000	         -2.45975708	         -8.08274435	          4.46521071	
          2.59400000	         -2.44984243	         -8.11013999	          4.44506134	
          2.60000000	         -2.43863713	         -8.13716849	          4.42336262	
          2.60600000	         -2.42604589	         -8.16377790	          4.40029525	
          2.61200000	         -2.41207199	         -8.18990433	          4.37602967	
          2.61800000	         -2.39678258	         -8.21548250	          4.35072500	
          2.62400000	         -2.38030219	         -8.24045008	          4.32452171	
          2.63000000	         -2.36279256	         -8.26476045	          4.29753385	
          2.63600000	         -2.34443827	         -8.28837502	          4.26984734	
          2.64200000	         -2.32543139	         -8.31129358	          4.24150344	
          2.64800000	         -2.30596564	         -8.33353032	          4.21250531	
          2.65400000	         -2.28622921	         -8.35512646	          4.18281228	
          2.66000000	         -2.26640039	         -8.37614588	          4.15234420	
          2.66600000	         -2.24665370	         -8.39666405	          4.12099159	
          2.67200000	         -2.22714633	         -8.41677501	          4.08862250	
          2.67800000	         -2.20802988	         -8.43657266	          4.05510128	
          2.68400000	         -2.18944273	         -8.45614887	          4.02030134	
          2.69000000	         -2.17150804	         -8.47557941	          3.98411938	
          2.69600000	         -2.15433535	         -8.49492873	          3.94648157	
          2.70200000	         -2.13800712	         -8.51421905	          3.90735476	
          2.70800000	         -2.12258327	         -8.53345118	          3.86674062	
          2.71400000	         -2.10809025	         -8.55259060	          3.82467610	
          2.72000000	         -2.09451350	         -8.57157144	          3.78122920	
          2.72600000	         -2.08179141	         -8.59031007	          3.73649211	
          2.73200000	         -2.06980005	         -8.60870116	          3.69058191	
          2.73800000	         -2.05835445	         -8.62663926	          3.64363400	
          2.74400000	         -2.04720507	         -8.64402405	          3.59580240	
          2.75000000	         -2.03604522	         -8.66077648	          3.54725700	
          2.75600000	         -2.02451593	         -8.67682888	          3.49818256	
          2.76200000	         -2.01222970	         -8.69215723	          3.44877212	
          2.76800000	         -1.99877992	         -8.70675158	          3.39922353	
          2.77400000	         -1.98376571	         -8.72062771	          3.34973108	
